<?xml version="1.0" encoding="UTF-8" standalone="no"?>
<svg
   xmlns:dc="http://purl.org/dc/elements/1.1/"
   xmlns:cc="http://creativecommons.org/ns#"
   xmlns:rdf="http://www.w3.org/1999/02/22-rdf-syntax-ns#"
   xmlns:svg="http://www.w3.org/2000/svg"
   xmlns="http://www.w3.org/2000/svg"
   id="svg66"
   version="1.1"
   viewBox="0 0 238.50436 123.86083"
   height="123.86083mm"
   width="238.50436mm">
  <defs
     id="defs60">
    <marker
       id="ExperimentalArrow"
       refX="5"
       refY="3"
       orient="auto-start-reverse">
      <path
         style="fill:context-stroke;stroke:#bb4747;stroke-opacity:1"
         d="M 10,3 0,6 V 0 Z"
         id="path5308" />
    </marker>
    <marker
       style="overflow:visible"
       id="Arrow2Mend"
       refX="0"
       refY="0"
       orient="auto">
      <path
         transform="scale(-0.6)"
         d="M 8.7185878,4.0337352 -2.2072895,0.01601326 8.7185884,-4.0017078 c -1.7454984,2.3720609 -1.7354408,5.6174519 -6e-7,8.035443 z"
         style="fill:#bb4747;fill-opacity:1;fill-rule:evenodd;stroke:#bb4747;stroke-width:0.625;stroke-linejoin:round;stroke-opacity:1"
         id="path5082" />
    </marker>
    <marker
       style="overflow:visible"
       id="Arrow1Send"
       refX="0"
       refY="0"
       orient="auto">
      <path
         transform="matrix(-0.2,0,0,-0.2,-1.2,0)"
         style="fill:#bb4747;fill-opacity:1;fill-rule:evenodd;stroke:#bb4747;stroke-width:1.00000003pt;stroke-opacity:1"
         d="M 0,0 5,-5 -12.5,0 5,5 Z"
         id="path5070" />
    </marker>
    <marker
       style="overflow:visible"
       id="Arrow1Send-3"
       refX="0"
       refY="0"
       orient="auto">
      <path
         transform="matrix(-0.2,0,0,-0.2,-1.2,0)"
         style="fill:#bb4747;fill-opacity:1;fill-rule:evenodd;stroke:#bb4747;stroke-width:1.00000003pt;stroke-opacity:1"
         d="M 0,0 5,-5 -12.5,0 5,5 Z"
         id="path5070-7" />
    </marker>
    <marker
       style="overflow:visible"
       id="Arrow1Send-8"
       refX="0"
       refY="0"
       orient="auto">
      <path
         transform="matrix(-0.2,0,0,-0.2,-1.2,0)"
         style="fill:#bb4747;fill-opacity:1;fill-rule:evenodd;stroke:#bb4747;stroke-width:1.00000003pt;stroke-opacity:1"
         d="M 0,0 5,-5 -12.5,0 5,5 Z"
         id="path5070-2" />
    </marker>
  </defs>
  <metadata
     id="metadata63">
    <rdf:RDF>
      <cc:Work
         rdf:about="">
        <dc:format>image/svg+xml</dc:format>
        <dc:type
           rdf:resource="http://purl.org/dc/dcmitype/StillImage" />
        <dc:title></dc:title>
      </cc:Work>
    </rdf:RDF>
  </metadata>
  <g
     transform="translate(39.940041,-49.289779)"
     id="layer1">
    <path
       id="path5049"
       d="m 24.324879,77.319866 c -0.47469,-0.102774 -0.949381,-0.205548 -1.424071,-0.308322 -0.237347,-0.102775 -0.460294,-0.235652 -0.712037,-0.308326 -2.039648,-0.5888 -0.975535,0.04006 -3.204163,-0.924969 C 18.6019,75.612531 18.288058,75.34545 17.916554,75.161602 16.700943,74.560025 15.751777,74.25789 14.356373,73.928307 12.714374,73.540483 10.865292,73.503224 9.3721195,72.695015 8.9451643,72.463917 8.7543963,71.965046 8.304065,71.770045 c -0.3184323,-0.137886 -0.7257342,0.0847 -1.0680542,0 C 6.8014798,71.662526 5.0042443,70.803654 4.387866,70.536752 4.1505206,70.433978 3.933267,70.284166 3.6758298,70.228426 c -0.2302589,-0.04985 -0.4916665,0.07634 -0.7120362,0 -0.3972771,-0.137621 -0.6707773,-0.479024 -1.0680543,-0.616645 -0.3573615,-0.123794 -1.3784468,0.08696 -1.78009065,0 -0.25743716,-0.05574 -0.45459887,-0.252587 -0.71203603,-0.308324 -0.23025903,-0.04985 -0.48177742,0.04985 -0.71203622,0 -0.2574372,-0.05574 -0.4545991,-0.252585 -0.7120362,-0.308323 -0.2895146,-0.06268 -1.7634152,0 -2.136109,0 -0.237345,0 -0.4746909,0 -0.7120359,0 -0.118673,0 -0.2498731,-0.04597 -0.356018,0 -0.3002213,0.130001 -0.4118155,0.486645 -0.7120369,0.616647 -0.1061428,0.04597 -0.2498731,-0.04597 -0.3560179,0 -0.1501102,0.065 -0.237345,0.205548 -0.356018,0.308322 -0.118672,0.102774 -0.2629238,0.18739 -0.356018,0.308323 -0.1471955,0.191216 -0.2373449,0.411101 -0.3560179,0.616649 -0.118672,0.205549 -0.272104,0.398629 -0.356018,0.616646 -0.037521,0.0975 0.065835,0.22281 0,0.308324 -0.1861894,0.24187 -0.5258466,0.374778 -0.7120369,0.616646 -0.065825,0.08552 0.053069,0.2164 0,0.308324 -0.075053,0.129999 -0.2629228,0.18739 -0.356017,0.308324 -0.6744504,-0.03511 -0.2373459,0.71942 -0.3560179,0.924968 -0.075053,0.130001 -0.3029471,0.17044 -0.356018,0.308324 -0.1068059,0.277492 0.1068039,0.647479 0,0.924971 -0.083912,0.218018 -0.272105,0.39863 -0.3560189,0.616647 -0.1125829,0.2925 0.1125828,0.632468 0,0.924969 -0.053079,0.137887 -0.2809629,0.178324 -0.3560179,0.308326 -0.114064,0.197565 0.110549,1.65846 0,1.849938 -0.07505,0.130001 -0.302946,0.170438 -0.356018,0.308325 -5.49e-4,0.0013 3.49e-4,0.924675 0,0.924969 -0.08391,0.07268 -0.237346,0 -0.356018,0 -0.118673,0 -0.237346,0 -0.356018,0 -0.30852,0 -1.21784,0.05954 -1.424073,0 -0.251743,-0.07268 -0.460294,-0.23565 -0.712037,-0.308323 -0.206231,-0.05954 -1.115552,0 -1.424072,0 -0.118672,0 -0.237345,0 -0.356018,0 -0.118673,0 -0.249874,-0.04597 -0.356018,0 -0.15011,0.065 -0.237345,0.205548 -0.356018,0.308323 -0.237345,0 -0.486871,-0.065 -0.712036,0 -0.159216,0.04597 -0.196802,0.26236 -0.356017,0.308323 -0.225166,0.065 -0.474692,0 -0.712037,0 -0.118673,0 -0.249874,-0.04597 -0.356018,0 -0.356018,0.205549 -0.712036,0.411098 -1.068055,0.616647 -0.237346,0 -0.491666,-0.07634 -0.712036,0 -0.397277,0.137624 -0.725751,0.394313 -1.068054,0.616648 -0.134263,0.08721 -0.196803,0.262361 -0.356017,0.308323 -0.225167,0.065 -0.486872,-0.065 -0.712039,0 -0.159214,0.04597 -0.237345,0.205549 -0.356017,0.308324 -0.237345,0.205548 -0.443511,0.442231 -0.712036,0.616645 -0.212289,0.137887 -0.491242,0.180848 -0.712036,0.308324 -0.139642,0.08063 -0.216376,0.227701 -0.35602,0.308325 -0.220792,0.127476 -0.524398,0.145821 -0.712035,0.308323 -0.08391,0.07268 0.08391,0.23565 0,0.308323 -0.08391,0.07268 -0.302946,-0.09193 -0.356017,0 -0.106145,0.183847 0.07506,0.421645 0,0.616647 -0.05308,0.137887 -0.237345,0.205548 -0.356017,0.308322 -0.237346,0.205549 -0.561929,0.356647 -0.712036,0.616648 -0.106145,0.183848 0.08815,0.4258 0,0.616646 -0.158914,0.344056 -0.520683,0.593535 -0.712038,0.92497 -0.05308,0.09192 0.05308,0.216401 0,0.308323 -0.150111,0.260002 -0.561926,0.356647 -0.712036,0.616649 -0.05308,0.09192 0,0.205548 0,0.308323 -0.118673,0.205549 -0.208823,0.425432 -0.356018,0.616646 -0.0931,0.120933 -0.262924,0.187389 -0.356018,0.308323 -0.147195,0.191216 -0.196803,0.432799 -0.356017,0.616648 -0.201397,0.232551 -0.510645,0.384093 -0.712039,0.616646 -0.318431,0.367698 -0.417645,0.850866 -0.712035,1.233292 -0.0931,0.120937 -0.302945,0.170439 -0.356018,0.308326 -0.07505,0.194999 0.106145,0.432797 0,0.616646 -0.15011,0.260002 -0.561927,0.356645 -0.712036,0.616646 -0.106144,0.18385 0.05756,0.417235 0,0.616647 -0.06436,0.22295 -0.257465,0.403273 -0.35602,0.616648 -0.139371,0.301755 -0.188188,0.634279 -0.356018,0.924969 -0.191352,0.331438 -0.520681,0.593534 -0.712035,0.924971 -0.05308,0.09192 0,0.205549 0,0.308323 0,0.205549 0,0.411098 0,0.616647 0,0.513871 0.116367,1.037723 0,1.541617 -0.05204,0.225347 -0.291658,0.393697 -0.356018,0.616647 -0.07001,0.242533 0,1.529309 0,1.849939 0,0.71942 0,1.43885 0,2.15826 0,0.20555 0,0.4111 0,0.61665 0,0.20555 -0.05757,0.41723 0,0.61664 0.06436,0.22296 0.272103,0.39864 0.356018,0.61666 0.178011,0.46248 -0.356018,0.30832 0,0.92497 0.05308,0.0919 0.272103,-0.0727 0.356017,0 0.08391,0.0727 -0.05308,0.21639 0,0.30831 0.07506,0.13001 0.280964,0.17834 0.356018,0.30834 0.05308,0.0919 -0.08391,0.23565 0,0.30832 0.08391,0.0726 0.356018,-0.10279 0.356018,0 0,0.10277 -0.356018,-0.10279 -0.356018,0 0,0.5014 0.667099,0.0778 0.356018,0.61664 -0.07505,0.13 -0.280961,0.17832 -0.356018,0.30832 -0.106142,0.18386 0.106145,0.4328 0,0.61665 -0.814675,1.41107 0.147562,-1.30834 -0.712035,0.92497 -0.07505,0.19501 0,0.4111 0,0.61665 0,0.71942 0,1.43884 0,2.15826 0,0.61665 0,1.2333 0,1.84994 0,0.20555 -0.05757,0.41724 0,0.61665 0.581075,2.01292 0.191171,-1.1649 0.712035,1.54162 0.05853,0.30412 -0.112581,0.63247 0,0.92497 0.135308,0.35155 0.576729,0.57343 0.712038,0.92497 0.998776,2.59492 -1.165386,-0.78523 0.356018,1.84994 0.191353,0.33144 0.553126,0.58091 0.712036,0.92497 0.08815,0.19084 -0.04655,0.4151 0,0.61664 0.0736,0.31869 0.237345,0.61665 0.356018,0.92498 0.118673,0.30832 0.20819,0.62624 0.356017,0.92496 0.209063,0.42247 0.502976,0.81084 0.712039,1.2333 0.147827,0.29873 0.216643,0.62321 0.356017,0.92497 0.197105,0.42675 0.51493,0.80655 0.712036,1.23329 0.139374,0.30176 0.216643,0.62322 0.356018,0.92498 0.645334,1.39719 0.03287,0.0426 0.712036,0.92496 0.147197,0.19122 0.237347,0.4111 0.35602,0.61665 0.237345,0.4111 0.51493,0.80655 0.712036,1.23329 0.04407,0.0954 -0.05308,0.2164 0,0.30833 1.679042,2.90821 0.0667,-0.0676 1.068052,1.2333 0.147195,0.19121 0.196803,0.43279 0.356017,0.61664 0.201397,0.23255 0.510645,0.38409 0.712038,0.61664 0.159215,0.18385 0.219492,0.41959 0.356018,0.61665 0.220143,0.31775 0.491894,0.60722 0.712036,0.92497 0.136526,0.19706 0.196803,0.4328 0.356017,0.61665 0.201394,0.23255 0.474691,0.41109 0.712039,0.61665 0.237344,0.20554 0.47469,0.41109 0.712035,0.61665 0.237345,0.20554 0.474691,0.41109 0.712036,0.61664 0.237345,0.20555 0.443511,0.44224 0.712036,0.61664 0.231207,0.15018 1.84882,0.84204 2.13611,0.92498 0.112582,0.0324 0.249873,-0.0459 0.356017,0 0.879864,0.381 -0.12289,0.30832 0.712036,0.30832 0.118673,0 0.243436,0.0325 0.356018,0 2.578787,-0.74443 -0.561301,0.0889 1.068054,-0.61664 0.106145,-0.0459 0.272104,0.0726 0.356018,0 0.08391,-0.0727 -0.05308,-0.21641 0,-0.30833 0.393588,-0.68172 0.22096,-0.0957 0.712036,-0.30833 0.300222,-0.13 0.411816,-0.48664 0.712037,-0.61664 0.108348,-0.0469 0.907719,0 1.068054,0 0.118674,0 0.272104,-0.0727 0.356019,0 0.08391,0.0727 0,0.20555 0,0.30832 0,0.10278 0,0.20555 0,0.30832 0,0.2026 0.06695,0.75102 0,0.92498 -0.859596,2.23331 0.102641,-0.48611 -0.712037,0.92496 -0.06725,0.11649 0,1.46291 0,1.84995 0,0.51387 0,1.02775 0,1.54162 0,0.20554 -0.07505,0.42164 0,0.61664 0.08391,0.21802 0.272104,0.39862 0.356018,0.61664 0.03752,0.0975 -0.08391,0.23566 0,0.30833 0.187639,0.1625 0.564841,0.11711 0.712037,0.30833 0.131655,0.17102 -0.106145,0.43279 0,0.61664 0.15011,0.25999 0.510642,0.38409 0.712036,0.61665 0.159216,0.18384 0.168379,0.45414 0.3560179,0.61664 0.083912,0.0727 0.2721039,-0.0727 0.3560189,0 0.1876365,0.16251 0.1968012,0.4328 0.356018,0.61664 0.2013927,0.23256 0.4746899,0.41111 0.7120349,0.61666 0.237346,0.20555 0.474691,0.4111 0.7120369,0.61664 0.474691,0.41111 0.8998634,0.87011 1.4240719,1.23329 0.3341186,0.23149 0.7120369,0.41111 1.0680548,0.61666 0.356018,0.20554 0.6853464,0.45092 1.0680539,0.61665 0.3356573,0.14534 0.7462582,0.14111 1.0680547,0.30832 0.2878235,0.14955 0.4118153,0.48664 0.712036,0.61664 0.4376434,0.18951 0.9992412,0.0981 1.42407257,0.30833 1.76296128,0.87244 0.31569578,0.95041 2.13610863,1.5416 0.5665862,0.18402 1.2060285,0.14261 1.7800905,0.30834 0.5034856,0.14534 0.9390939,0.42997 1.4240724,0.61664 1.9902787,0.76607 1.7453924,0.54966 3.916199,1.2333 0.6005959,0.18914 1.1679706,0.45761 1.780091,0.61664 0.579594,0.15059 1.189385,0.19464 1.78009,0.30833 0.477649,0.0919 0.938551,0.25576 1.424072,0.30832 0.471026,0.051 0.952285,-0.0454 1.424073,0 4.251476,0.4091 -0.677875,0.30833 3.560181,0.30833 0.83071,0 1.661418,0 2.492126,0 0.356019,0 0.715615,0.0436 1.068055,0 0.484382,-0.06 0.944274,-0.22523 1.424073,-0.30833 0.116367,-0.0201 0.257276,0.0571 0.356018,0 0.279284,-0.16124 0.443511,-0.44223 0.712035,-0.61665 0.212289,-0.13789 0.499748,-0.17044 0.712036,-0.30832 0.268526,-0.17442 0.454178,-0.43055 0.712037,-0.61665 0.455835,-0.32897 1.004501,-0.5616 1.424073,-0.92497 0.187638,-0.1625 0.208822,-0.42543 0.356018,-0.61664 0.0931,-0.12094 0.216376,-0.22771 0.356018,-0.30834 0.220793,-0.12746 0.56484,-0.1171 0.712037,-0.30831 0.131654,-0.17104 -0.106145,-0.43279 0,-0.61664 0.05308,-0.0919 0.272103,0.0726 0.356018,0 0.08391,-0.0727 -0.05308,-0.21641 0,-0.30833 0.150109,-0.26001 0.605891,-0.34087 0.712035,-0.61665 0.252709,-0.65656 -0.364292,-0.9178 0.356018,-1.54161 0.08391,-0.0727 0.272105,0.0727 0.356018,0 0.17801,-0.15417 -0.178008,-0.77081 0,-0.92497 0.08391,-0.0727 0.272105,0.0727 0.356017,0 0.08391,-0.0727 0.08391,-0.23566 0,-0.30833 -0.08391,-0.0727 -0.356017,0.10277 -0.356017,0 0,-0.10277 0.356017,-0.10277 0.356017,0 0,0.22981 -0.272103,0.39863 -0.356017,0.61664 -0.03752,0.0975 0,0.20556 0,0.30833 0,0.10278 -0.08391,0.23566 0,0.30833 0.08391,0.0727 0.302947,-0.0919 0.356017,0 0.106145,0.18384 -0.131653,0.44562 0,0.61665 0.147199,0.19121 0.524399,0.14581 0.712039,0.30832 0.187637,0.16249 0.1968,0.43279 0.356017,0.61664 0.549576,0.6346 1.025535,0.76653 1.780091,1.23329 0.48284,0.29869 0.920901,0.65262 1.424071,0.92498 0.450051,0.24359 0.96014,0.39343 1.424074,0.61664 0.604893,0.29104 1.186726,0.61665 1.780089,0.92497 0.593365,0.30833 1.186727,0.61665 1.780091,0.92497 0.593363,0.30833 1.150142,0.67699 1.780091,0.92498 0.683276,0.26897 1.424071,0.41109 2.136109,0.61664 0.830709,0.30832 1.673132,0.59397 2.492127,0.92497 7.440747,3.00716 -2.027769,-0.59487 6.052307,2.46659 4.611909,1.7474 0.355858,0.20551 4.984252,1.54161 0.961909,0.27768 1.875406,0.6772 2.848145,0.92498 1.049652,0.26735 2.154514,0.34928 3.204166,0.61664 0.972736,0.24777 1.853892,0.75275 2.848143,0.92497 0.814577,0.14109 1.674817,-0.12869 2.492127,0 0.52216,0.0822 0.900573,0.54109 1.424071,0.61664 0.936465,0.13518 1.900867,-0.0547 2.848145,0 0.837284,0.0484 1.655119,0.25656 2.492126,0.30833 1.302084,0.0805 2.6108,0 3.916201,0 0.94938,0 1.898764,0 2.848144,0 0.356018,0 0.715614,0.0436 1.068055,0 1.112272,-0.13761 1.882603,-0.50687 2.848145,-0.92497 0.47469,-0.20554 0.982486,-0.36169 1.424072,-0.61665 0.817905,-0.47221 -0.15266,-0.17611 0.712038,-0.92496 0.187636,-0.16251 0.499745,-0.17044 0.712035,-0.30833 0.268523,-0.17441 0.47469,-0.41109 0.712035,-0.61665 0.237346,-0.20555 0.525848,-0.37477 0.712036,-0.61664 0.06583,-0.0855 -0.02879,-0.20863 0,-0.30832 0.09102,-0.3153 0.216645,-0.62322 0.35602,-0.92498 0.01969,-0.0427 0.708676,-1.21875 0.712036,-1.23329 0.06982,-0.30234 -0.06982,-0.62263 0,-0.92497 0.05204,-0.22535 0.291658,-0.3937 0.356018,-0.61665 0.05757,-0.1994 0,-0.41109 0,-0.61665 0,-0.20555 0,-0.41109 0,-0.61664 0,-1.02774 0,-2.05549 0,-3.08323 0,-0.61665 0,-1.23329 0,-1.84994 0,-0.10278 0,-0.20555 0,-0.30833 0,-0.10278 0.05307,-0.21639 0,-0.30832 -0.07506,-0.13 -0.356018,-0.16298 -0.356018,-0.30832 0,-0.10278 0.237345,0 0.356018,0 0.237344,0 0.47469,0 0.712034,0 1.068056,0 2.13611,0 3.204166,0 4.27222,0 8.54443,0 12.81665,0 4.98425,0 9.96851,0 14.95277,0 1.89875,0 3.79752,0 5.69627,0 0.94939,0 1.90062,0.0513 2.84815,0 0.95491,-0.0517 1.89877,-0.20556 2.84814,-0.30832 2.01567,-0.21821 4.03878,-0.38415 6.05232,-0.61665 0.71553,-0.0826 1.42264,-0.21328 2.13611,-0.30833 0.79368,-0.10574 3.74019,-0.43917 4.62824,-0.61664 1.58443,0.0144 2.81592,-0.918 4.2722,-1.2333 0.34539,-0.0748 0.71204,0 1.06806,0 0.23734,0 0.49975,0.0919 0.71204,0 0.30022,-0.12999 0.43276,-0.45541 0.71203,-0.61664 0.0987,-0.0571 0.24988,0.046 0.35603,0 0.1501,-0.065 0.23733,-0.20555 0.35601,-0.30834 0.11867,-0.10277 0.28097,-0.17831 0.35601,-0.30831 0.0531,-0.0919 -0.053,-0.21641 0,-0.30833 0.15012,-0.26 0.56193,-0.35664 0.71205,-0.61664 0.053,-0.0919 0,-0.20555 0,-0.30832 0,-0.10278 0,-0.20555 0,-0.30833 0,-0.10278 0.0658,-0.22282 0,-0.30832 -0.18619,-0.24188 -0.47469,-0.41111 -0.71205,-0.61665 -0.11867,-0.10277 -0.19679,-0.26236 -0.35601,-0.30833 -0.22517,-0.065 -0.48687,0.065 -0.71204,0 -0.15921,-0.0459 -0.2059,-0.24332 -0.35601,-0.30832 -0.43572,-0.18867 -0.98813,0.4971 -0.71203,0.61665 0.21228,0.0919 0.47929,-0.0403 0.71203,0 0.73598,0.12747 1.40796,0.459 2.13611,0.61665 0.58704,0.1271 1.18672,0.20554 1.78009,0.30832 4.83228,0.83698 -0.85422,-0.0432 3.20416,0.30833 4.73076,0.4097 -0.4523,0.30832 4.27222,0.30832 0.59336,0 1.18673,0 1.78009,0 1.11347,0 1.78805,0.0997 2.84814,-0.30832 2.5563,-0.98393 1.05389,-0.54517 2.49213,-1.54163 0.33412,-0.23148 0.7655,-0.35461 1.06805,-0.61664 0.18764,-0.1625 0.21949,-0.41958 0.35602,-0.61664 0.22013,-0.31776 0.55312,-0.58093 0.71204,-0.92498 0.0881,-0.19085 -0.039,-0.41389 0,-0.61664 0.0805,-0.41798 0.20129,-0.8313 0.35602,-1.2333 0.0839,-0.21802 0.25746,-0.40327 0.35601,-0.61665 0.13937,-0.30176 0.23734,-0.61664 0.35602,-0.92496 0.11867,-0.30832 0.28243,-0.60629 0.35602,-0.92498 0.0465,-0.20155 -0.10614,-0.43279 0,-0.61664 0.15011,-0.26 0.53934,-0.36739 0.71203,-0.61664 0.007,-0.0102 0.69358,-1.80999 0.71205,-1.84995 0.0986,-0.21337 0.20881,-0.42543 0.35601,-0.61664 0.0931,-0.12094 0.31531,-0.16733 0.35602,-0.30833 0.0522,-0.18087 -0.0872,-1.69885 0,-1.84993 0.075,-0.13001 0.28096,-0.17833 0.35603,-0.30834 0.10501,-0.18192 -0.0816,-0.71289 0,-0.92496 0.33362,-0.86679 0.87372,-0.82671 1.42406,-1.54162 0.29439,-0.38243 0.47469,-0.8222 0.71203,-1.2333 0.35603,-0.61664 0.71204,-1.23329 1.06806,-1.84993 0.35602,-0.61665 0.62647,-1.27631 1.06805,-1.84994 0.27929,-0.36281 0.78878,-0.56217 1.06806,-0.92498 0.44158,-0.57364 0.71204,-1.23329 1.06806,-1.84994 0.23734,-0.41109 0.47469,-0.82219 0.71203,-1.23329 0.35602,-0.61664 0.85859,-1.18481 1.06805,-1.84994 0.15613,-0.49576 -0.10613,-1.03603 0,-1.54162 0.26854,-1.27903 1.15554,-2.42084 1.42408,-3.69987 0.10613,-0.50559 -0.0537,-1.02987 0,-1.54162 0.0653,-0.62258 0.22688,-1.23488 0.35602,-1.84994 0.10824,-0.51559 0.30123,-1.01972 0.35601,-1.54162 0,-3.88931 -0.13964,0.0425 0.35601,-3.39156 0.0442,-0.30594 -0.0584,-0.62084 0,-0.92497 0.0617,-0.32058 0.21665,-0.62321 0.35603,-0.92497 0.0986,-0.21337 0.16837,-0.45415 0.35601,-0.61665 0.0839,-0.0727 0,0.20556 0,0.30833 0,0.20555 0,0.4111 0,0.61664 0,0.30833 0,0.61665 0,0.92498 0,0.10277 0.11868,0.30831 0,0.30831 -0.11867,0 0,-0.20554 0,-0.30831 0,-0.20556 0,-0.4111 0,-0.61665 0,-0.61665 0,-1.2333 0,-1.84994 0,-2.055492 0,-4.110982 0,-6.166471 0,-1.192141 0.19624,-2.583899 -0.35601,-3.699879 -0.16679,-0.337032 -1.66787,-2.036779 -1.78009,-2.158264 -1.49997,-1.623772 -2.23386,-2.453795 -4.27222,-3.699882 -1.13065,-0.691181 -2.37802,-1.226759 -3.56018,-1.84994 -1.54735,-0.815684 -3.0617,-1.678844 -4.62824,-2.466587 -2.11321,-1.062647 -4.21027,-2.158633 -6.40832,-3.083235 -3.84687,-1.618167 -9.2149,-3.112246 -13.17267,-4.316528 -8.7558,-2.664227 -3.12772,-1.085516 -11.03657,-3.083233 -1.37883,-0.348283 -4.82145,-1.312569 -6.40832,-1.541618 -0.46824,-0.06759 -0.95304,0.051 -1.42407,0 -0.48553,-0.05255 -0.94143,-0.238658 -1.42407,-0.308322 -0.002,-2.17e-4 -1.37651,-0.02058 -1.42407,0 -0.15012,0.065 -0.28096,0.178321 -0.35602,0.308322 -0.0706,0.122249 0.0728,0.86194 0,0.924972 -0.0839,0.07268 -0.23735,0 -0.35602,0 -0.23734,0 -0.47469,0 -0.71204,0 -1.06805,0 -2.1361,0 -3.20416,0 -0.4747,0 -0.94938,0 -1.42407,0 -0.35603,0 -0.71562,-0.04361 -1.06805,0 -4.94645,0.61197 0.78423,-0.01562 -2.13612,0.616646 -0.46051,0.09971 -0.99949,-0.18385 -1.42406,0 -0.30023,0.130001 -0.4004,0.508688 -0.71205,0.616647 -0.33055,0.114508 -0.72266,-0.07478 -1.06805,0 -0.36351,0.0787 -0.5658,0.79832 -0.71204,0.924971 -0.86469,0.748855 -0.52278,-0.09169 -1.06805,0.616645 -0.78437,0.155271 -0.18819,0.63428 -0.35602,0.92497 -0.075,0.130001 -0.30294,0.170438 -0.35602,0.308325 -0.11257,0.292501 0,0.616647 0,0.92497 0,0.102774 -0.11867,0.308323 0,0.308323 0.54843,0 0.32127,-0.804563 0.35602,-0.92497 0.46216,-1.600991 0.35602,0.329149 0.35602,-1.233295 0,-0.411097 0,-0.822194 0,-1.233292 0,-0.308324 0,-0.616647 0,-0.92497 0,-0.102775 0.053,-0.2164 0,-0.308324 -0.0751,-0.130001 -0.28096,-0.178322 -0.35602,-0.308323 -0.43843,-0.759385 1.03342,0.278334 -0.35602,-0.924972 -0.18763,-0.162499 -0.5244,-0.145821 -0.71203,-0.308323 -0.30256,-0.262024 -0.36974,-0.702634 -0.71204,-0.924969 -0.18988,-0.12333 -0.49974,0.09192 -0.71204,0 -2.21366,-1.278072 -1.91473,-1.215957 -4.27221,-2.158263 -0.8206,-0.328 -1.66143,-0.616646 -2.49212,-0.924972 -2.03377,-0.754845 -3.96264,-1.49152 -6.05232,-2.158264 -1.05641,-0.337062 -2.15488,-0.571581 -3.20416,-0.924969 -7.951548,-2.678006 1.15586,-0.06636 -6.052309,-1.849941 -0.03352,-0.0083 -4.260183,-1.23121 -4.272215,-1.233292 -1.384515,-0.239809 -1.246064,0.179854 -2.492126,0 -0.370172,-0.05343 -0.707219,-0.219041 -1.068056,-0.308325 -0.470473,-0.116412 -0.941429,-0.238659 -1.424072,-0.308323 -0.468232,-0.06759 -0.949383,0 -1.424073,0 -1.25028,0 -0.282283,-0.145344 -1.068054,0.308323 -0.220795,0.127478 -0.499748,0.170437 -0.712037,0.308325 -0.268525,0.174413 -0.47469,0.411098 -0.712036,0.616646 -0.118672,0.102775 -0.262924,0.187389 -0.356018,0.308324 -0.417463,0.542304 -0.422552,0.914861 -0.712035,1.541616 -0.197105,0.426748 -0.438982,0.839172 -0.712037,1.233293 -0.220143,0.317753 -0.455308,0.628523 -0.712036,0.924972 -0.100697,0.116276 -0.280962,0.178322 -0.356018,0.308322 -0.05307,0.09193 0.05308,0.216399 0,0.308324 -0.07365,0.127568 -0.917152,0.837846 -1.068056,0.924969 -0.220792,0.127478 -0.460294,0.235653 -0.712035,0.308326 -0.112582,0.0325 -0.237345,0 -0.356018,0 -0.356018,0 -0.712036,0 -1.068054,0 -1.305401,0 -2.610798,0 -3.916199,0 -3.797528,0 -7.595053,0 -11.392581,0 -0.94938,0 -1.898761,0 -2.848145,0 -0.47469,0 -0.949381,0 -1.424071,0 -0.237345,0 -0.499748,-0.09193 -0.712037,0 -0.300219,0.129999 -0.432751,0.4554 -0.712035,0.616646 -0.09874,0.05701 -0.243436,-0.0325 -0.356018,0 -0.646611,0.186661 -0.660716,0.263878 -1.068053,0.616646 -0.118673,0.102774 -0.216377,0.227701 -0.356021,0.308323 -0.220792,0.127476 -0.524398,0.145823 -0.712035,0.308322 -0.08391,0.07268 0.05308,0.216401 0,0.308326 -0.07505,0.129998 -0.237345,0.205548 -0.356018,0.308323 -0.118673,0.102774 -0.188191,0.308323 -0.356018,0.308323 -0.118673,0 0.05308,-0.216398 0,-0.308323 -0.07505,-0.130001 -0.280962,-0.178325 -0.356018,-0.308323 -0.05308,-0.09193 0.08391,-0.235653 0,-0.308326 -0.187639,-0.162499 -0.468133,-0.217793 -0.712038,-0.308322 -0.587399,-0.218017 -1.173812,-0.441629 -1.780089,-0.616646 -0.46419,-0.134003 -0.952014,-0.196828 -1.424073,-0.308323 -0.833507,-0.196869 -1.650301,-0.448406 -2.492126,-0.616646 -0.703371,-0.140572 -1.435804,-0.156703 -2.13611,-0.308326 -3.317159,-0.718193 -0.9185,-0.602255 -4.272215,-0.924969 -0.353842,-0.03405 -0.712037,0 -1.068055,0 -0.830709,0 -1.661419,0 -2.492128,0 -1.505507,0 -2.427364,-0.121469 -3.916197,0.308323 -1.030868,0.29759 -0.773903,0.536179 -1.780092,1.233295 -0.207212,0.14356 -0.496103,0.174748 -0.712035,0.308323 -1.429537,0.884302 -1.513406,1.002334 -2.492128,1.84994 -0.593363,0.513872 -1.186726,1.027744 -1.780091,1.541615 -0.356018,0.308326 -0.842888,0.53497 -1.068053,0.924972 -0.106145,0.183848 0.08814,0.425799 0,0.616647 -0.158911,0.344055 -0.520682,0.593532 -0.712037,0.92497 -0.05308,0.09192 0,0.205549 0,0.308324 0,0.513871 0,1.027743 0,1.541615 0,0.102776 0,0.205551 0,0.308325 0,0.102775 0.05308,0.216399 0,0.308323 -0.15011,0.26 -0.561925,0.356644 -0.712036,0.616647 -0.05308,0.09192 0,0.205549 0,0.308323 0,0.205548 0.05757,0.417235 0,0.616646 -0.06436,0.22295 -0.272104,0.398629 -0.356018,0.616648 -0.03752,0.0975 0.05308,0.216398 0,0.308324 -0.07505,0.13 -0.302946,0.170435 -0.356018,0.308323 -0.07505,0.195001 0,0.411098 0,0.616646 0,0.102775 0.05308,0.2164 0,0.308323 -0.07505,0.130001 -0.280963,0.178324 -0.356019,0.308325 -0.05308,0.09192 0.08391,0.23565 0,0.308323 -0.08391,0.07268 -0.272104,-0.07267 -0.356018,0 -0.01145,0.0099 0,0.850192 0,0.924969 0.81145,-0.702741 1.395186,-1.533277 2.492128,-1.849939 0.112582,-0.0325 0.249873,0.04597 0.356018,0 0.320638,-0.138842 1.028002,-1.181264 1.068053,-1.233294 z"
       style="fill:#000000;fill-opacity:0.05314008;stroke:#000000;stroke-width:0.2319195px;stroke-linecap:butt;stroke-linejoin:miter;stroke-opacity:1" />
    <ellipse
       style="fill:#ebc646;fill-opacity:1;stroke:#000000;stroke-width:0.60275227;stroke-miterlimit:4;stroke-dasharray:none;stroke-opacity:1"
       ry="30.258205"
       rx="76.3713"
       cy="111.41369"
       cx="49.590439"
       id="path3773-8" />
    <ellipse
       style="fill:#60c9f0;fill-opacity:1;stroke:#000000;stroke-width:0.34127823;stroke-miterlimit:4;stroke-dasharray:none;stroke-opacity:1"
       ry="17.91573"
       rx="41.350254"
       cy="112.81221"
       cx="18.785378"
       id="path3773" />
    <g
       transform="translate(-44.525616,69.963396)"
       id="g4863">
      <rect
         style="fill:#00ddd0;fill-opacity:1;stroke:#000000;stroke-width:0.26499999;stroke-miterlimit:4;stroke-dasharray:none;stroke-opacity:1"
         id="rect4590"
         width="21.166666"
         height="12.473214"
         x="27.592258"
         y="35.0625" />
      <text
         xml:space="preserve"
         style="font-style:normal;font-weight:normal;font-size:10.58333302px;line-height:0.5;font-family:sans-serif;letter-spacing:0px;word-spacing:0px;fill:#000000;fill-opacity:1;stroke:none;stroke-width:0.26458332"
         x="30.918453"
         y="40.656548"
         id="text4582"><tspan
           x="30.918453"
           y="40.656548"
           style="font-size:4.93888903px;line-height:0.5;stroke-width:0.26458332"
           id="tspan4584">rekis-</tspan><tspan
           x="30.918453"
           y="46.158924"
           style="font-size:4.93888903px;line-height:0.5;stroke-width:0.26458332"
           id="tspan4588">terit</tspan></text>
    </g>
    <text
       id="text4582-3"
       y="124.56807"
       x="-2.7349064"
       style="font-style:normal;font-variant:normal;font-weight:normal;font-stretch:normal;font-size:4.93888903px;line-height:0.5;font-family:sans-serif;-inkscape-font-specification:'sans-serif, Normal';font-variant-ligatures:normal;font-variant-caps:normal;font-variant-numeric:normal;font-feature-settings:normal;text-align:start;letter-spacing:0px;word-spacing:0px;writing-mode:lr-tb;text-anchor:start;fill:#000000;fill-opacity:1;stroke:none;stroke-width:0.26458332"
       xml:space="preserve"><tspan
         y="124.56807"
         x="-2.7349064"
         id="tspan4613">Laitteisto (ns)</tspan></text>
    <rect
       y="104.49672"
       x="8.0886765"
       height="12.473214"
       width="21.166666"
       id="rect4590-8-0"
       style="fill:#fbd7aa;fill-opacity:1;stroke:none;stroke-width:0.26499999;stroke-miterlimit:4;stroke-dasharray:none;stroke-opacity:1" />
    <text
       id="text4582-1"
       y="116.09563"
       x="9.5870857"
       style="font-style:normal;font-variant:normal;font-weight:normal;font-stretch:normal;font-size:4.93888903px;line-height:1;font-family:sans-serif;-inkscape-font-specification:'sans-serif, Normal';font-variant-ligatures:normal;font-variant-caps:normal;font-variant-numeric:normal;font-feature-settings:normal;text-align:start;letter-spacing:0px;word-spacing:0px;writing-mode:lr-tb;text-anchor:start;fill:#000000;fill-opacity:1;stroke:none;stroke-width:0.26458332"
       xml:space="preserve"><tspan
         y="116.09563"
         x="9.5870857"
         id="tspan1001">muistit</tspan></text>
    <g
       transform="translate(74.839286,-65.616671)"
       id="g5029">
      <g
         id="g5009"
         transform="translate(-8.3154762,4.5357145)">
        <g
           transform="translate(0,-3.7041668)"
           id="g5038">
          <rect
             style="fill:#fbd7aa;fill-opacity:1;stroke:none;stroke-width:0.35902342;stroke-miterlimit:4;stroke-dasharray:none;stroke-opacity:1"
             id="rect4590-8-0-3"
             width="24.190475"
             height="20.03274"
             x="62.177082"
             y="163.38542" />
          <text
             xml:space="preserve"
             style="font-style:normal;font-weight:normal;font-size:10.58333302px;line-height:0.5;font-family:sans-serif;letter-spacing:0px;word-spacing:0px;fill:#000000;fill-opacity:1;stroke:none;stroke-width:0.26458332"
             x="64.998512"
             y="169.6226"
             id="text4582-1-5"><tspan
               x="64.998512"
               y="169.6226"
               style="font-size:4.93888903px;line-height:0.5;stroke-width:0.26458332"
               id="tspan4584-4-0">välitys-</tspan><tspan
               x="64.998512"
               y="175.12498"
               style="font-size:4.93888903px;line-height:0.5;stroke-width:0.26458332"
               id="tspan5031">palvelin</tspan><tspan
               x="64.998512"
               y="180.62735"
               style="font-size:4.93888903px;line-height:0.5;stroke-width:0.26458332"
               id="tspan4588-0-7">(proxy)</tspan></text>
        </g>
      </g>
    </g>
    <text
       id="text4582-1-5-68"
       y="136.19789"
       x="25.592531"
       style="font-style:normal;font-variant:normal;font-weight:normal;font-stretch:normal;font-size:4.93888903px;line-height:0.5;font-family:sans-serif;-inkscape-font-specification:'sans-serif, Normal';font-variant-ligatures:normal;font-variant-caps:normal;font-variant-numeric:normal;font-feature-settings:normal;text-align:start;letter-spacing:0px;word-spacing:0px;writing-mode:lr-tb;text-anchor:start;fill:#000000;fill-opacity:1;stroke:none;stroke-width:0.26458332"
       xml:space="preserve"><tspan
         y="136.19789"
         x="25.592531"
         id="tspan915">järjestelmä (ns, μs, ms)</tspan></text>
    <text
       id="text4582-1-5-0"
       y="139.90204"
       x="116.76039"
       style="font-style:normal;font-weight:normal;font-size:10.58333302px;line-height:0.5;font-family:sans-serif;letter-spacing:0px;word-spacing:0px;fill:#000000;fill-opacity:1;stroke:none;stroke-width:0.26458332"
       xml:space="preserve"><tspan
         id="tspan4588-0-7-2"
         style="font-size:4.93888903px;line-height:0.5;stroke-width:0.26458332"
         y="139.90204"
         x="116.76039">internet (sek)</tspan></text>
    <g
       transform="translate(-2.1166672,26.080358)"
       id="g4895">
      <g
         transform="translate(0,-1.0583333)"
         id="g957">
        <rect
           y="73.427086"
           x="64.331535"
           height="24.568451"
           width="29.860117"
           id="rect4590-8-0-3-3"
           style="fill:#fbd7aa;fill-opacity:1;stroke:none;stroke-width:0.44173834;stroke-miterlimit:4;stroke-dasharray:none;stroke-opacity:1" />
        <text
           id="text4582-1-5-6"
           y="79.135002"
           x="66.737144"
           style="font-style:normal;font-variant:normal;font-weight:normal;font-stretch:normal;font-size:4.93888903px;line-height:0.5;font-family:sans-serif;-inkscape-font-specification:'sans-serif, Normal';font-variant-ligatures:normal;font-variant-caps:normal;font-variant-numeric:normal;font-feature-settings:normal;text-align:start;letter-spacing:0px;word-spacing:0px;writing-mode:lr-tb;text-anchor:start;fill:#000000;fill-opacity:1;stroke:none;stroke-width:0.26458332"
           xml:space="preserve"><tspan
             id="tspan931"
             x="66.737144"
             y="79.135002">virtuaali-</tspan><tspan
             id="tspan933"
             x="66.737144"
             y="81.604446"></tspan><tspan
             id="tspan935"
             x="66.737144"
             y="84.073891">muisti,</tspan><tspan
             id="tspan937"
             x="66.737144"
             y="86.543335"></tspan><tspan
             id="tspan939"
             x="66.737144"
             y="89.012779"></tspan><tspan
             id="tspan941"
             x="66.737144"
             y="91.482224">levyväli-</tspan><tspan
             id="tspan943"
             x="66.737144"
             y="93.951668"></tspan><tspan
             id="tspan945"
             x="66.737144"
             y="96.421112">muisti</tspan></text>
      </g>
    </g>
    <g
       transform="translate(12.700002,68.640482)"
       id="g4880">
      <rect
         style="fill:#aafbf0;fill-opacity:1;stroke:#000000;stroke-width:0.26499999;stroke-miterlimit:4;stroke-dasharray:none;stroke-opacity:1"
         id="rect4590-8"
         width="21.166666"
         height="12.473214"
         x="83.532738"
         y="36.385414" />
      <text
         xml:space="preserve"
         style="font-style:normal;font-weight:normal;font-size:10.58333302px;line-height:0.5;font-family:sans-serif;letter-spacing:0px;word-spacing:0px;fill:#000000;fill-opacity:1;stroke:none;stroke-width:0.26458332"
         x="85.635948"
         y="41.715683"
         id="text4582-9"><tspan
           x="85.635948"
           y="41.715683"
           style="font-size:4.93888903px;line-height:0.5;stroke-width:0.26458332"
           id="tspan4588-8">massa-</tspan><tspan
           x="85.635948"
           y="47.21806"
           style="font-size:4.93888903px;line-height:0.5;stroke-width:0.26458332"
           id="tspan4855">muisti</tspan></text>
    </g>
    <g
       transform="translate(-23.510133,43.316077)"
       id="g4868">
      <rect
         style="fill:#30fdf9;fill-opacity:1;stroke:#000000;stroke-width:0.26499999;stroke-miterlimit:4;stroke-dasharray:none;stroke-opacity:1"
         id="rect4590-8-1"
         width="21.166666"
         height="12.473214"
         x="55.940472"
         y="61.70982" />
      <text
         xml:space="preserve"
         style="font-style:normal;font-weight:normal;font-size:10.58333302px;line-height:0.5;font-family:sans-serif;letter-spacing:0px;word-spacing:0px;fill:#000000;fill-opacity:1;stroke:none;stroke-width:0.26458332"
         x="58.497253"
         y="69.534729"
         id="text4582-37"><tspan
           x="58.497253"
           y="69.534729"
           style="font-size:4.93888903px;line-height:0.5;stroke-width:0.26458332"
           id="tspan4588-6">muisti</tspan></text>
    </g>
    <g
       transform="translate(5.4428572,-53.909368)"
       id="g4886">
      <g
         transform="translate(31.228991,61.733483)"
         id="g5047">
        <rect
           y="93.507568"
           x="120.98202"
           height="18.803307"
           width="23.357124"
           id="rect4590-8-1-7"
           style="fill:#e2f3ff;fill-opacity:1;stroke:#000000;stroke-width:0.34178835;stroke-miterlimit:4;stroke-dasharray:none;stroke-opacity:1" />
        <text
           id="text4582-18"
           y="99.016899"
           x="123.46049"
           style="font-style:normal;font-variant:normal;font-weight:normal;font-stretch:normal;font-size:4.93888903px;line-height:1;font-family:sans-serif;-inkscape-font-specification:'sans-serif, Normal';font-variant-ligatures:normal;font-variant-caps:normal;font-variant-numeric:normal;font-feature-settings:normal;text-align:start;letter-spacing:0px;word-spacing:0px;writing-mode:lr-tb;text-anchor:start;fill:#000000;fill-opacity:1;stroke:none;stroke-width:0.26458332"
           xml:space="preserve"><tspan
             y="99.016899"
             x="123.46049"
             id="tspan4849">pilvi-</tspan><tspan
             y="103.95579"
             x="123.46049"
             id="tspan5040">palvelu</tspan><tspan
             id="tspan4851"
             y="108.89468"
             x="123.46049">www</tspan></text>
      </g>
    </g>
    <rect
       y="49.414227"
       x="-39.815594"
       height="123.61194"
       width="238.25546"
       id="rect5051"
       style="fill:none;fill-opacity:0.05314008;stroke:#000000;stroke-width:0.24889421;stroke-miterlimit:4;stroke-dasharray:none;stroke-opacity:1" />
    <path
       id="path5053"
       d="m 32.141285,111.37594 c -27.9577563,0 -27.9577563,0 -27.9577563,0"
       style="fill:none;stroke:#bb4747;stroke-width:0.85902226;stroke-linecap:butt;stroke-linejoin:miter;stroke-miterlimit:4;stroke-dasharray:none;stroke-opacity:1;marker-end:url(#Arrow1Send)" />
    <path
       id="path5053-2"
       d="m 157.30735,111.67824 c -39.90795,0 -39.90795,0 -39.90795,0"
       style="fill:none;stroke:#bb4747;stroke-width:0.82599998;stroke-linecap:butt;stroke-linejoin:miter;stroke-miterlimit:4;stroke-dasharray:none;stroke-opacity:1;marker-end:url(#Arrow1Send-3)" />
    <path
       id="path5053-9"
       d="m 96.500265,111.37594 c -42.903258,0 -42.903258,0 -42.903258,0"
       style="fill:none;stroke:#bb4747;stroke-width:0.86400002;stroke-linecap:butt;stroke-linejoin:miter;stroke-miterlimit:4;stroke-dasharray:none;stroke-opacity:1;marker-end:url(#Arrow1Send-8)" />
    <text
       id="text4582-1-7"
       y="109.38036"
       x="9.7419538"
       style="font-style:normal;font-variant:normal;font-weight:normal;font-stretch:normal;font-size:4.93888903px;line-height:1;font-family:sans-serif;-inkscape-font-specification:'sans-serif, Normal';font-variant-ligatures:normal;font-variant-caps:normal;font-variant-numeric:normal;font-feature-settings:normal;text-align:start;letter-spacing:0px;word-spacing:0px;writing-mode:lr-tb;text-anchor:start;fill:#000000;fill-opacity:1;stroke:none;stroke-width:0.26458332"
       xml:space="preserve"><tspan
         y="109.38036"
         x="9.7419538"
         id="tspan999">väli-</tspan></text>
  </g>
</svg>
